# MagicaVoxel @ Ephtracy

# group
o 

# material
mtllib blocks2.mtl
usemtl palette

# normals
vn -1 0 0
vn 1 0 0
vn 0 0 1
vn 0 0 -1
vn 0 -1 0
vn 0 1 0

# texcoords
vt 0.00195313 0.5
vt 0.138672 0.5
vt 0.958984 0.5

# verts
v 0 2 0
v 0 2 -0.1
v 0 2 -0.4
v 0 2.1 0
v 0 2.1 -0.1
v 0 2.1 -0.4
v 0.3 2 -0.1
v 0.3 2 -0.3
v 0.3 2.1 -0.1
v 0.3 2.1 -0.3
v 0.1 2 -0.1
v 0.1 2 -0.4
v 0.1 2.1 -0.1
v 0.1 2.1 -0.4
v 0.4 2 0
v 0.4 2 -0.3
v 0.4 2.1 0
v 0.4 2.1 -0.3
v 0 2 0
v 0 2.1 0
v 0.1 2 0
v 0.1 2.1 0
v 0.2 2 0
v 0.2 2.1 0
v 0.4 2 0
v 0.4 2.1 0
v 0.1 2 -0.1
v 0.1 2.1 -0.1
v 0.2 2 -0.1
v 0.2 2.1 -0.1
v 0.3 2 -0.1
v 0.3 2.1 -0.1
v 0.3 2 -0.3
v 0.3 2.1 -0.3
v 0.4 2 -0.3
v 0.4 2.1 -0.3
v 0 2 -0.4
v 0 2.1 -0.4
v 0.1 2 -0.4
v 0.1 2.1 -0.4
v 0 2 0
v 0.1 2 0
v 0.2 2 0
v 0.4 2 0
v 0 2 -0.1
v 0.1 2 -0.1
v 0.2 2 -0.1
v 0.3 2 -0.1
v 0.3 2 -0.3
v 0.4 2 -0.3
v 0 2 -0.4
v 0.1 2 -0.4
v 0 2.1 0
v 0.1 2.1 0
v 0.2 2.1 0
v 0.4 2.1 0
v 0 2.1 -0.1
v 0.1 2.1 -0.1
v 0.2 2.1 -0.1
v 0.3 2.1 -0.1
v 0.3 2.1 -0.3
v 0.4 2.1 -0.3
v 0 2.1 -0.4
v 0.1 2.1 -0.4

# faces
f 4/1/1 2/1/1 1/1/1
f 5/3/1 3/3/1 2/3/1
f 5/1/1 2/1/1 4/1/1
f 6/3/1 3/3/1 5/3/1
f 9/3/1 8/3/1 7/3/1
f 10/3/1 8/3/1 9/3/1
f 11/3/2 12/3/2 13/3/2
f 13/3/2 12/3/2 14/3/2
f 15/3/2 16/3/2 17/3/2
f 17/3/2 16/3/2 18/3/2
f 21/1/3 20/1/3 19/1/3
f 22/1/3 20/1/3 21/1/3
f 23/2/3 22/2/3 21/2/3
f 24/2/3 22/2/3 23/2/3
f 25/3/3 24/3/3 23/3/3
f 26/3/3 24/3/3 25/3/3
f 27/2/4 28/2/4 29/2/4
f 29/2/4 28/2/4 30/2/4
f 29/3/4 30/3/4 31/3/4
f 31/3/4 30/3/4 32/3/4
f 33/3/4 34/3/4 35/3/4
f 35/3/4 34/3/4 36/3/4
f 37/3/4 38/3/4 39/3/4
f 39/3/4 38/3/4 40/3/4
f 45/1/5 42/1/5 41/1/5
f 46/2/5 43/2/5 42/2/5
f 46/1/5 42/1/5 45/1/5
f 47/3/5 44/3/5 43/3/5
f 47/2/5 43/2/5 46/2/5
f 48/3/5 44/3/5 47/3/5
f 49/3/5 44/3/5 48/3/5
f 50/3/5 44/3/5 49/3/5
f 51/3/5 46/3/5 45/3/5
f 52/3/5 46/3/5 51/3/5
f 53/1/6 54/1/6 57/1/6
f 54/2/6 55/2/6 58/2/6
f 57/1/6 54/1/6 58/1/6
f 55/3/6 56/3/6 59/3/6
f 58/2/6 55/2/6 59/2/6
f 59/3/6 56/3/6 60/3/6
f 60/3/6 56/3/6 61/3/6
f 61/3/6 56/3/6 62/3/6
f 57/3/6 58/3/6 63/3/6
f 63/3/6 58/3/6 64/3/6
