# MagicaVoxel @ Ephtracy

# group
o 

# material
mtllib block.mtl
usemtl palette

# normals
vn -1 0 0
vn 1 0 0
vn 0 0 1
vn 0 0 -1
vn 0 -1 0
vn 0 1 0

# texcoords
vt 0.00195313 0.5
vt 0.138672 0.5
vt 0.443359 0.5
vt 0.923828 0.5

# verts
v 0 2 0
v 0 2 -0.1
v 0 2.1 0
v 0 2.1 -0.1
v 0.4 2 0
v 0.4 2 -0.1
v 0.4 2.1 0
v 0.4 2.1 -0.1
v 0 2 0
v 0 2.1 0
v 0.1 2 0
v 0.1 2.1 0
v 0.2 2 0
v 0.2 2.1 0
v 0.3 2 0
v 0.3 2.1 0
v 0.4 2 0
v 0.4 2.1 0
v 0 2 -0.1
v 0 2.1 -0.1
v 0.1 2 -0.1
v 0.1 2.1 -0.1
v 0.2 2 -0.1
v 0.2 2.1 -0.1
v 0.3 2 -0.1
v 0.3 2.1 -0.1
v 0.4 2 -0.1
v 0.4 2.1 -0.1
v 0 2 0
v 0.1 2 0
v 0.2 2 0
v 0.3 2 0
v 0.4 2 0
v 0 2 -0.1
v 0.1 2 -0.1
v 0.2 2 -0.1
v 0.3 2 -0.1
v 0.4 2 -0.1
v 0 2.1 0
v 0.1 2.1 0
v 0.2 2.1 0
v 0.3 2.1 0
v 0.4 2.1 0
v 0 2.1 -0.1
v 0.1 2.1 -0.1
v 0.2 2.1 -0.1
v 0.3 2.1 -0.1
v 0.4 2.1 -0.1

# faces
f 3/1/1 2/1/1 1/1/1
f 4/1/1 2/1/1 3/1/1
f 5/4/2 6/4/2 7/4/2
f 7/4/2 6/4/2 8/4/2
f 11/1/3 10/1/3 9/1/3
f 12/1/3 10/1/3 11/1/3
f 13/2/3 12/2/3 11/2/3
f 14/2/3 12/2/3 13/2/3
f 15/3/3 14/3/3 13/3/3
f 16/3/3 14/3/3 15/3/3
f 17/4/3 16/4/3 15/4/3
f 18/4/3 16/4/3 17/4/3
f 19/1/4 20/1/4 21/1/4
f 21/1/4 20/1/4 22/1/4
f 21/2/4 22/2/4 23/2/4
f 23/2/4 22/2/4 24/2/4
f 23/3/4 24/3/4 25/3/4
f 25/3/4 24/3/4 26/3/4
f 25/4/4 26/4/4 27/4/4
f 27/4/4 26/4/4 28/4/4
f 34/1/5 30/1/5 29/1/5
f 35/2/5 31/2/5 30/2/5
f 35/1/5 30/1/5 34/1/5
f 36/3/5 32/3/5 31/3/5
f 36/2/5 31/2/5 35/2/5
f 37/4/5 33/4/5 32/4/5
f 37/3/5 32/3/5 36/3/5
f 38/4/5 33/4/5 37/4/5
f 39/1/6 40/1/6 44/1/6
f 40/2/6 41/2/6 45/2/6
f 44/1/6 40/1/6 45/1/6
f 41/3/6 42/3/6 46/3/6
f 45/2/6 41/2/6 46/2/6
f 42/4/6 43/4/6 47/4/6
f 46/3/6 42/3/6 47/3/6
f 47/4/6 43/4/6 48/4/6
