# MagicaVoxel @ Ephtracy

# group
o 

# material
mtllib blocks3.mtl
usemtl palette

# normals
vn -1 0 0
vn 1 0 0
vn 0 0 1
vn 0 0 -1
vn 0 -1 0
vn 0 1 0

# texcoords
vt 0.00195313 0.5
vt 0.138672 0.5
vt 0.958984 0.5

# verts
v 0 2 0
v 0 2 -0.1
v 0 2 -0.4
v 0 2.1 0
v 0 2.1 -0.1
v 0 2.2 -0.1
v 0 2.2 -0.2
v 0 2.3 -0.2
v 0 2.3 -0.3
v 0 2.4 -0.3
v 0 2.4 -0.4
v 0.3 2 -0.1
v 0.3 2 -0.3
v 0.3 2 -0.4
v 0.3 2 -0.5
v 0.3 2.1 -0.1
v 0.3 2.1 -0.3
v 0.3 2.1 -0.4
v 0.3 2.1 -0.5
v 0.1 2 -0.1
v 0.1 2 -0.4
v 0.1 2.1 -0.1
v 0.1 2.2 -0.1
v 0.1 2.2 -0.2
v 0.1 2.3 -0.2
v 0.1 2.3 -0.3
v 0.1 2.4 -0.3
v 0.1 2.4 -0.4
v 0.4 2 0
v 0.4 2 -0.3
v 0.4 2 -0.4
v 0.4 2 -0.5
v 0.4 2.1 0
v 0.4 2.1 -0.3
v 0.4 2.1 -0.4
v 0.4 2.1 -0.5
v 0 2 0
v 0 2.1 0
v 0.1 2 0
v 0.1 2.1 0
v 0.2 2 0
v 0.2 2.1 0
v 0.4 2 0
v 0.4 2.1 0
v 0 2.1 -0.1
v 0 2.2 -0.1
v 0.1 2.1 -0.1
v 0.1 2.2 -0.1
v 0 2.2 -0.2
v 0 2.3 -0.2
v 0.1 2.2 -0.2
v 0.1 2.3 -0.2
v 0 2.3 -0.3
v 0 2.4 -0.3
v 0.1 2.3 -0.3
v 0.1 2.4 -0.3
v 0.3 2 -0.4
v 0.3 2.1 -0.4
v 0.4 2 -0.4
v 0.4 2.1 -0.4
v 0.1 2 -0.1
v 0.1 2.1 -0.1
v 0.2 2 -0.1
v 0.2 2.1 -0.1
v 0.3 2 -0.1
v 0.3 2.1 -0.1
v 0.3 2 -0.3
v 0.3 2.1 -0.3
v 0.4 2 -0.3
v 0.4 2.1 -0.3
v 0 2 -0.4
v 0 2.4 -0.4
v 0.1 2 -0.4
v 0.1 2.4 -0.4
v 0.3 2 -0.5
v 0.3 2.1 -0.5
v 0.4 2 -0.5
v 0.4 2.1 -0.5
v 0 2 0
v 0.1 2 0
v 0.2 2 0
v 0.4 2 0
v 0 2 -0.1
v 0.1 2 -0.1
v 0.2 2 -0.1
v 0.3 2 -0.1
v 0.3 2 -0.3
v 0.4 2 -0.3
v 0 2 -0.4
v 0.1 2 -0.4
v 0.3 2 -0.4
v 0.4 2 -0.4
v 0.3 2 -0.5
v 0.4 2 -0.5
v 0 2.1 0
v 0.1 2.1 0
v 0.2 2.1 0
v 0.4 2.1 0
v 0 2.1 -0.1
v 0.1 2.1 -0.1
v 0.2 2.1 -0.1
v 0.3 2.1 -0.1
v 0.3 2.1 -0.3
v 0.4 2.1 -0.3
v 0.3 2.1 -0.4
v 0.4 2.1 -0.4
v 0.3 2.1 -0.5
v 0.4 2.1 -0.5
v 0 2.2 -0.1
v 0.1 2.2 -0.1
v 0 2.2 -0.2
v 0.1 2.2 -0.2
v 0 2.3 -0.2
v 0.1 2.3 -0.2
v 0 2.3 -0.3
v 0.1 2.3 -0.3
v 0 2.4 -0.3
v 0.1 2.4 -0.3
v 0 2.4 -0.4
v 0.1 2.4 -0.4

# faces
f 4/1/1 2/1/1 1/1/1
f 5/3/1 3/3/1 2/3/1
f 5/1/1 2/1/1 4/1/1
f 6/3/1 3/3/1 5/3/1
f 7/3/1 3/3/1 6/3/1
f 8/3/1 3/3/1 7/3/1
f 9/3/1 3/3/1 8/3/1
f 10/3/1 3/3/1 9/3/1
f 11/3/1 3/3/1 10/3/1
f 16/3/1 13/3/1 12/3/1
f 17/3/1 13/3/1 16/3/1
f 18/3/1 15/3/1 14/3/1
f 19/3/1 15/3/1 18/3/1
f 20/3/2 21/3/2 22/3/2
f 22/3/2 21/3/2 23/3/2
f 23/3/2 21/3/2 24/3/2
f 24/3/2 21/3/2 25/3/2
f 25/3/2 21/3/2 26/3/2
f 26/3/2 21/3/2 27/3/2
f 27/3/2 21/3/2 28/3/2
f 29/3/2 30/3/2 33/3/2
f 33/3/2 30/3/2 34/3/2
f 31/3/2 32/3/2 35/3/2
f 35/3/2 32/3/2 36/3/2
f 39/1/3 38/1/3 37/1/3
f 40/1/3 38/1/3 39/1/3
f 41/2/3 40/2/3 39/2/3
f 42/2/3 40/2/3 41/2/3
f 43/3/3 42/3/3 41/3/3
f 44/3/3 42/3/3 43/3/3
f 47/3/3 46/3/3 45/3/3
f 48/3/3 46/3/3 47/3/3
f 51/3/3 50/3/3 49/3/3
f 52/3/3 50/3/3 51/3/3
f 55/3/3 54/3/3 53/3/3
f 56/3/3 54/3/3 55/3/3
f 59/3/3 58/3/3 57/3/3
f 60/3/3 58/3/3 59/3/3
f 61/2/4 62/2/4 63/2/4
f 63/2/4 62/2/4 64/2/4
f 63/3/4 64/3/4 65/3/4
f 65/3/4 64/3/4 66/3/4
f 67/3/4 68/3/4 69/3/4
f 69/3/4 68/3/4 70/3/4
f 71/3/4 72/3/4 73/3/4
f 73/3/4 72/3/4 74/3/4
f 75/3/4 76/3/4 77/3/4
f 77/3/4 76/3/4 78/3/4
f 83/1/5 80/1/5 79/1/5
f 84/2/5 81/2/5 80/2/5
f 84/1/5 80/1/5 83/1/5
f 85/3/5 82/3/5 81/3/5
f 85/2/5 81/2/5 84/2/5
f 86/3/5 82/3/5 85/3/5
f 87/3/5 82/3/5 86/3/5
f 88/3/5 82/3/5 87/3/5
f 89/3/5 84/3/5 83/3/5
f 90/3/5 84/3/5 89/3/5
f 93/3/5 92/3/5 91/3/5
f 94/3/5 92/3/5 93/3/5
f 95/1/6 96/1/6 99/1/6
f 96/2/6 97/2/6 100/2/6
f 99/1/6 96/1/6 100/1/6
f 97/3/6 98/3/6 101/3/6
f 100/2/6 97/2/6 101/2/6
f 101/3/6 98/3/6 102/3/6
f 102/3/6 98/3/6 103/3/6
f 103/3/6 98/3/6 104/3/6
f 105/3/6 106/3/6 107/3/6
f 107/3/6 106/3/6 108/3/6
f 109/3/6 110/3/6 111/3/6
f 111/3/6 110/3/6 112/3/6
f 113/3/6 114/3/6 115/3/6
f 115/3/6 114/3/6 116/3/6
f 117/3/6 118/3/6 119/3/6
f 119/3/6 118/3/6 120/3/6
