# MagicaVoxel @ Ephtracy

# group
o 

# material
mtllib house1.mtl
usemtl palette

# normals
vn -1 0 0
vn 1 0 0
vn 0 0 1
vn 0 0 -1
vn 0 -1 0
vn 0 1 0

# texcoords
vt 0.306641 0.5

# verts
v 0 2 0
v 0 2 -0.3
v 0 2 -0.4
v 0 2 -0.5
v 0 2.2 -0.3
v 0 2.2 -0.4
v 0 2.3 0
v 0 2.3 -0.5
v 0.3 2 -0.1
v 0.3 2 -0.3
v 0.3 2.1 0
v 0.3 2.1 -0.1
v 0.3 2.1 -0.2
v 0.3 2.2 0
v 0.3 2.2 -0.1
v 0.3 2.2 -0.2
v 0.3 2.2 -0.3
v 0.1 2 -0.1
v 0.1 2 -0.2
v 0.1 2.2 -0.1
v 0.1 2.2 -0.2
v 0.2 2 -0.2
v 0.2 2 -0.3
v 0.2 2.1 0
v 0.2 2.1 -0.1
v 0.2 2.2 0
v 0.2 2.2 -0.1
v 0.2 2.2 -0.2
v 0.2 2.2 -0.3
v 0.4 2 0
v 0.4 2 -0.3
v 0.4 2 -0.4
v 0.4 2 -0.5
v 0.4 2.1 -0.1
v 0.4 2.1 -0.2
v 0.4 2.2 -0.1
v 0.4 2.2 -0.2
v 0.4 2.2 -0.3
v 0.4 2.2 -0.4
v 0.4 2.3 0
v 0.4 2.3 -0.5
v 0 2 0
v 0 2.3 0
v 0.2 2.1 0
v 0.2 2.2 0
v 0.3 2.1 0
v 0.3 2.2 0
v 0.4 2 0
v 0.4 2.3 0
v 0.1 2 -0.2
v 0.1 2.2 -0.2
v 0.2 2 -0.2
v 0.2 2.2 -0.2
v 0.3 2.1 -0.2
v 0.3 2.2 -0.2
v 0.4 2.1 -0.2
v 0.4 2.2 -0.2
v 0 2 -0.4
v 0 2.2 -0.4
v 0.4 2 -0.4
v 0.4 2.2 -0.4
v 0.1 2 -0.1
v 0.1 2.2 -0.1
v 0.2 2.1 -0.1
v 0.2 2.2 -0.1
v 0.3 2 -0.1
v 0.3 2.1 -0.1
v 0.3 2.2 -0.1
v 0.4 2.1 -0.1
v 0.4 2.2 -0.1
v 0 2 -0.3
v 0 2.2 -0.3
v 0.2 2 -0.3
v 0.2 2.2 -0.3
v 0.3 2 -0.3
v 0.3 2.2 -0.3
v 0.4 2 -0.3
v 0.4 2.2 -0.3
v 0 2 -0.5
v 0 2.3 -0.5
v 0.4 2 -0.5
v 0.4 2.3 -0.5
v 0 2 0
v 0.4 2 0
v 0.1 2 -0.1
v 0.3 2 -0.1
v 0.1 2 -0.2
v 0.2 2 -0.2
v 0 2 -0.3
v 0.2 2 -0.3
v 0.3 2 -0.3
v 0.4 2 -0.3
v 0 2 -0.4
v 0.4 2 -0.4
v 0 2 -0.5
v 0.4 2 -0.5
v 0.2 2.2 0
v 0.3 2.2 0
v 0.1 2.2 -0.1
v 0.2 2.2 -0.1
v 0.3 2.2 -0.1
v 0.4 2.2 -0.1
v 0.1 2.2 -0.2
v 0.2 2.2 -0.2
v 0.3 2.2 -0.2
v 0.4 2.2 -0.2
v 0 2.2 -0.3
v 0.2 2.2 -0.3
v 0.3 2.2 -0.3
v 0.4 2.2 -0.3
v 0 2.2 -0.4
v 0.4 2.2 -0.4
v 0.2 2.1 0
v 0.3 2.1 0
v 0.2 2.1 -0.1
v 0.3 2.1 -0.1
v 0.4 2.1 -0.1
v 0.3 2.1 -0.2
v 0.4 2.1 -0.2
v 0 2.3 0
v 0.4 2.3 0
v 0 2.3 -0.5
v 0.4 2.3 -0.5

# faces
f 5/1/1 2/1/1 1/1/1
f 6/1/1 4/1/1 3/1/1
f 7/1/1 5/1/1 1/1/1
f 7/1/1 6/1/1 5/1/1
f 8/1/1 4/1/1 6/1/1
f 8/1/1 6/1/1 7/1/1
f 12/1/1 10/1/1 9/1/1
f 13/1/1 10/1/1 12/1/1
f 14/1/1 12/1/1 11/1/1
f 15/1/1 12/1/1 14/1/1
f 16/1/1 10/1/1 13/1/1
f 17/1/1 10/1/1 16/1/1
f 18/1/2 19/1/2 20/1/2
f 20/1/2 19/1/2 21/1/2
f 24/1/2 25/1/2 26/1/2
f 26/1/2 25/1/2 27/1/2
f 22/1/2 23/1/2 28/1/2
f 28/1/2 23/1/2 29/1/2
f 30/1/2 31/1/2 34/1/2
f 34/1/2 31/1/2 35/1/2
f 30/1/2 34/1/2 36/1/2
f 35/1/2 31/1/2 37/1/2
f 37/1/2 31/1/2 38/1/2
f 32/1/2 33/1/2 39/1/2
f 37/1/2 38/1/2 40/1/2
f 38/1/2 39/1/2 40/1/2
f 30/1/2 36/1/2 40/1/2
f 36/1/2 37/1/2 40/1/2
f 39/1/2 33/1/2 41/1/2
f 40/1/2 39/1/2 41/1/2
f 44/1/3 43/1/3 42/1/3
f 45/1/3 43/1/3 44/1/3
f 46/1/3 44/1/3 42/1/3
f 47/1/3 43/1/3 45/1/3
f 48/1/3 46/1/3 42/1/3
f 48/1/3 47/1/3 46/1/3
f 49/1/3 43/1/3 47/1/3
f 49/1/3 47/1/3 48/1/3
f 52/1/3 51/1/3 50/1/3
f 53/1/3 51/1/3 52/1/3
f 56/1/3 55/1/3 54/1/3
f 57/1/3 55/1/3 56/1/3
f 60/1/3 59/1/3 58/1/3
f 61/1/3 59/1/3 60/1/3
f 62/1/4 63/1/4 64/1/4
f 64/1/4 63/1/4 65/1/4
f 62/1/4 64/1/4 66/1/4
f 66/1/4 64/1/4 67/1/4
f 67/1/4 68/1/4 69/1/4
f 69/1/4 68/1/4 70/1/4
f 71/1/4 72/1/4 73/1/4
f 73/1/4 72/1/4 74/1/4
f 75/1/4 76/1/4 77/1/4
f 77/1/4 76/1/4 78/1/4
f 79/1/4 80/1/4 81/1/4
f 81/1/4 80/1/4 82/1/4
f 85/1/5 84/1/5 83/1/5
f 86/1/5 84/1/5 85/1/5
f 87/1/5 85/1/5 83/1/5
f 89/1/5 87/1/5 83/1/5
f 89/1/5 88/1/5 87/1/5
f 90/1/5 88/1/5 89/1/5
f 91/1/5 84/1/5 86/1/5
f 92/1/5 84/1/5 91/1/5
f 95/1/5 94/1/5 93/1/5
f 96/1/5 94/1/5 95/1/5
f 100/1/5 98/1/5 97/1/5
f 101/1/5 98/1/5 100/1/5
f 103/1/5 100/1/5 99/1/5
f 103/1/5 102/1/5 101/1/5
f 103/1/5 101/1/5 100/1/5
f 104/1/5 102/1/5 103/1/5
f 105/1/5 102/1/5 104/1/5
f 106/1/5 102/1/5 105/1/5
f 108/1/5 105/1/5 104/1/5
f 109/1/5 105/1/5 108/1/5
f 111/1/5 108/1/5 107/1/5
f 111/1/5 110/1/5 109/1/5
f 111/1/5 109/1/5 108/1/5
f 112/1/5 110/1/5 111/1/5
f 113/1/6 114/1/6 115/1/6
f 115/1/6 114/1/6 116/1/6
f 116/1/6 117/1/6 118/1/6
f 118/1/6 117/1/6 119/1/6
f 120/1/6 121/1/6 122/1/6
f 122/1/6 121/1/6 123/1/6
