# MagicaVoxel @ Ephtracy

# group
o 

# material
mtllib skyscraper1.mtl
usemtl palette

# normals
vn -1 0 0
vn 1 0 0
vn 0 0 1
vn 0 0 -1
vn 0 -1 0
vn 0 1 0

# texcoords
vt 0.517578 0.5
vt 0.966797 0.5

# verts
v -2 0 2
v -2 0 1.5
v -2 0.1 1.9
v -2 0.1 1.8
v -2 0.1 1.7
v -2 0.1 1.6
v -2 0.2 1.9
v -2 0.2 1.8
v -2 0.2 1.7
v -2 0.2 1.6
v -2 0.3 1.9
v -2 0.3 1.8
v -2 0.3 1.7
v -2 0.3 1.6
v -2 0.4 1.9
v -2 0.4 1.8
v -2 0.4 1.7
v -2 0.4 1.6
v -2 0.5 1.9
v -2 0.5 1.8
v -2 0.5 1.7
v -2 0.5 1.6
v -2 0.6 1.9
v -2 0.6 1.8
v -2 0.6 1.7
v -2 0.6 1.6
v -2 0.7 2
v -2 0.7 1.5
v -1.6 0 2
v -1.6 0 1.5
v -1.6 0.1 1.9
v -1.6 0.1 1.8
v -1.6 0.1 1.7
v -1.6 0.1 1.6
v -1.6 0.2 1.9
v -1.6 0.2 1.8
v -1.6 0.2 1.7
v -1.6 0.2 1.6
v -1.6 0.3 1.9
v -1.6 0.3 1.8
v -1.6 0.3 1.7
v -1.6 0.3 1.6
v -1.6 0.4 1.9
v -1.6 0.4 1.8
v -1.6 0.4 1.7
v -1.6 0.4 1.6
v -1.6 0.5 1.9
v -1.6 0.5 1.8
v -1.6 0.5 1.7
v -1.6 0.5 1.6
v -1.6 0.6 1.9
v -1.6 0.6 1.8
v -1.6 0.6 1.7
v -1.6 0.6 1.6
v -1.6 0.7 2
v -1.6 0.7 1.5
v -2 0 2
v -2 0.7 2
v -1.9 0.1 2
v -1.9 0.2 2
v -1.9 0.5 2
v -1.9 0.6 2
v -1.8 0.1 2
v -1.8 0.2 2
v -1.8 0.3 2
v -1.8 0.4 2
v -1.8 0.5 2
v -1.8 0.6 2
v -1.7 0.3 2
v -1.7 0.4 2
v -1.6 0 2
v -1.6 0.7 2
v -2 0 1.5
v -2 0.7 1.5
v -1.9 0.3 1.5
v -1.9 0.4 1.5
v -1.8 0.1 1.5
v -1.8 0.2 1.5
v -1.8 0.3 1.5
v -1.8 0.4 1.5
v -1.8 0.5 1.5
v -1.8 0.6 1.5
v -1.7 0.1 1.5
v -1.7 0.2 1.5
v -1.7 0.5 1.5
v -1.7 0.6 1.5
v -1.6 0 1.5
v -1.6 0.7 1.5
v -2 0 2
v -1.6 0 2
v -2 0 1.5
v -1.6 0 1.5
v -2 0.7 2
v -1.6 0.7 2
v -2 0.7 1.5
v -1.6 0.7 1.5

# faces
f 3/2/1 2/2/1 1/2/1
f 4/2/1 2/2/1 3/2/1
f 5/2/1 2/2/1 4/2/1
f 6/2/1 2/2/1 5/2/1
f 7/2/1 3/2/1 1/2/1
f 7/1/1 4/1/1 3/1/1
f 8/2/1 5/2/1 4/2/1
f 8/1/1 4/1/1 7/1/1
f 9/1/1 6/1/1 5/1/1
f 9/2/1 5/2/1 8/2/1
f 10/2/1 2/2/1 6/2/1
f 10/1/1 6/1/1 9/1/1
f 11/2/1 9/2/1 8/2/1
f 11/2/1 8/2/1 7/2/1
f 11/2/1 10/2/1 9/2/1
f 11/2/1 7/2/1 1/2/1
f 12/2/1 10/2/1 11/2/1
f 13/2/1 10/2/1 12/2/1
f 14/2/1 2/2/1 10/2/1
f 14/2/1 10/2/1 13/2/1
f 15/2/1 11/2/1 1/2/1
f 15/1/1 12/1/1 11/1/1
f 16/2/1 13/2/1 12/2/1
f 16/1/1 12/1/1 15/1/1
f 17/1/1 14/1/1 13/1/1
f 17/2/1 13/2/1 16/2/1
f 18/2/1 2/2/1 14/2/1
f 18/1/1 14/1/1 17/1/1
f 19/2/1 15/2/1 1/2/1
f 19/2/1 17/2/1 16/2/1
f 19/2/1 18/2/1 17/2/1
f 19/2/1 16/2/1 15/2/1
f 20/2/1 18/2/1 19/2/1
f 21/2/1 18/2/1 20/2/1
f 22/2/1 2/2/1 18/2/1
f 22/2/1 18/2/1 21/2/1
f 23/2/1 19/2/1 1/2/1
f 23/1/1 20/1/1 19/1/1
f 24/2/1 21/2/1 20/2/1
f 24/1/1 20/1/1 23/1/1
f 25/1/1 22/1/1 21/1/1
f 25/2/1 21/2/1 24/2/1
f 26/2/1 2/2/1 22/2/1
f 26/1/1 22/1/1 25/1/1
f 27/2/1 23/2/1 1/2/1
f 27/2/1 25/2/1 24/2/1
f 27/2/1 26/2/1 25/2/1
f 27/2/1 24/2/1 23/2/1
f 28/2/1 2/2/1 26/2/1
f 28/2/1 26/2/1 27/2/1
f 29/2/2 30/2/2 31/2/2
f 31/2/2 30/2/2 32/2/2
f 32/2/2 30/2/2 33/2/2
f 33/2/2 30/2/2 34/2/2
f 29/2/2 31/2/2 35/2/2
f 31/1/2 32/1/2 35/1/2
f 32/2/2 33/2/2 36/2/2
f 35/1/2 32/1/2 36/1/2
f 33/1/2 34/1/2 37/1/2
f 36/2/2 33/2/2 37/2/2
f 34/2/2 30/2/2 38/2/2
f 37/1/2 34/1/2 38/1/2
f 36/2/2 37/2/2 39/2/2
f 35/2/2 36/2/2 39/2/2
f 37/2/2 38/2/2 39/2/2
f 29/2/2 35/2/2 39/2/2
f 39/2/2 38/2/2 40/2/2
f 40/2/2 38/2/2 41/2/2
f 38/2/2 30/2/2 42/2/2
f 41/2/2 38/2/2 42/2/2
f 29/2/2 39/2/2 43/2/2
f 39/1/2 40/1/2 43/1/2
f 40/2/2 41/2/2 44/2/2
f 43/1/2 40/1/2 44/1/2
f 41/1/2 42/1/2 45/1/2
f 44/2/2 41/2/2 45/2/2
f 42/2/2 30/2/2 46/2/2
f 45/1/2 42/1/2 46/1/2
f 29/2/2 43/2/2 47/2/2
f 44/2/2 45/2/2 47/2/2
f 45/2/2 46/2/2 47/2/2
f 43/2/2 44/2/2 47/2/2
f 47/2/2 46/2/2 48/2/2
f 48/2/2 46/2/2 49/2/2
f 46/2/2 30/2/2 50/2/2
f 49/2/2 46/2/2 50/2/2
f 29/2/2 47/2/2 51/2/2
f 47/1/2 48/1/2 51/1/2
f 48/2/2 49/2/2 52/2/2
f 51/1/2 48/1/2 52/1/2
f 49/1/2 50/1/2 53/1/2
f 52/2/2 49/2/2 53/2/2
f 50/2/2 30/2/2 54/2/2
f 53/1/2 50/1/2 54/1/2
f 29/2/2 51/2/2 55/2/2
f 52/2/2 53/2/2 55/2/2
f 53/2/2 54/2/2 55/2/2
f 51/2/2 52/2/2 55/2/2
f 54/2/2 30/2/2 56/2/2
f 55/2/2 54/2/2 56/2/2
f 59/2/3 58/2/3 57/2/3
f 60/2/3 58/2/3 59/2/3
f 61/2/3 58/2/3 60/2/3
f 62/2/3 58/2/3 61/2/3
f 63/2/3 59/2/3 57/2/3
f 63/1/3 60/1/3 59/1/3
f 64/2/3 61/2/3 60/2/3
f 64/1/3 60/1/3 63/1/3
f 65/2/3 61/2/3 64/2/3
f 66/2/3 61/2/3 65/2/3
f 67/1/3 62/1/3 61/1/3
f 67/2/3 61/2/3 66/2/3
f 68/2/3 58/2/3 62/2/3
f 68/1/3 62/1/3 67/1/3
f 69/1/3 66/1/3 65/1/3
f 69/2/3 64/2/3 63/2/3
f 69/2/3 65/2/3 64/2/3
f 70/2/3 67/2/3 66/2/3
f 70/1/3 66/1/3 69/1/3
f 70/2/3 68/2/3 67/2/3
f 71/2/3 69/2/3 63/2/3
f 71/2/3 63/2/3 57/2/3
f 71/2/3 70/2/3 69/2/3
f 72/2/3 68/2/3 70/2/3
f 72/2/3 70/2/3 71/2/3
f 72/2/3 58/2/3 68/2/3
f 73/2/4 74/2/4 75/2/4
f 75/2/4 74/2/4 76/2/4
f 73/2/4 75/2/4 77/2/4
f 77/2/4 75/2/4 78/2/4
f 75/1/4 76/1/4 79/1/4
f 78/2/4 75/2/4 79/2/4
f 76/2/4 74/2/4 80/2/4
f 79/1/4 76/1/4 80/1/4
f 80/2/4 74/2/4 81/2/4
f 81/2/4 74/2/4 82/2/4
f 77/1/4 78/1/4 83/1/4
f 73/2/4 77/2/4 83/2/4
f 78/2/4 79/2/4 84/2/4
f 83/1/4 78/1/4 84/1/4
f 79/2/4 80/2/4 84/2/4
f 80/2/4 81/2/4 84/2/4
f 81/1/4 82/1/4 85/1/4
f 84/2/4 81/2/4 85/2/4
f 82/2/4 74/2/4 86/2/4
f 85/1/4 82/1/4 86/1/4
f 73/2/4 83/2/4 87/2/4
f 84/2/4 85/2/4 87/2/4
f 85/2/4 86/2/4 87/2/4
f 83/2/4 84/2/4 87/2/4
f 86/2/4 74/2/4 88/2/4
f 87/2/4 86/2/4 88/2/4
f 91/2/5 90/2/5 89/2/5
f 92/2/5 90/2/5 91/2/5
f 93/2/6 94/2/6 95/2/6
f 95/2/6 94/2/6 96/2/6
