# OBJ written from C:\Users\Chris\Desktop\Sci-Fi Crate\crate.obj
# Units	meters

o Mesh
v -0.462177 -0.45 0.487823
v -0.512177 -0.45 0.437823
v -0.462177 -0.5 0.437823
v -0.512177 -0.45 -0.462177
v -0.462177 -0.45 -0.512177
v -0.462177 -0.5 -0.462177
v 0.437823 -0.45 -0.512177
v 0.487823 -0.45 -0.462177
v 0.437823 -0.5 -0.462177
v 0.437823 -0.5 0.437823
v 0.487823 -0.45 0.437823
v 0.437823 -0.45 0.487823
v -0.462177 0.45 0.487823
v -0.462177 0.5 0.437823
v -0.512177 0.45 0.437823
v -0.462177 0.5 -0.462177
v -0.462177 0.45 -0.512177
v -0.512177 0.45 -0.462177
v 0.437823 0.5 -0.462177
v 0.487823 0.45 -0.462177
v 0.437823 0.45 -0.512177
v 0.437823 0.5 0.437823
v 0.437823 0.45 0.487823
v 0.487823 0.45 0.437823
v 0.473179 0.485355 0.437823
v 0.473179 0.485355 -0.462177
v -0.497532 -0.485355 -0.462177
v -0.497532 -0.485355 0.437823
v -0.462177 -0.485355 0.473179
v 0.437823 -0.485355 0.473179
v 0.437823 -0.485355 -0.497532
v -0.462177 -0.485355 -0.497532
v -0.497532 0.45 0.473179
v -0.497532 -0.45 0.473179
v 0.473179 -0.485355 0.437823
v 0.473179 -0.485355 -0.462177
v -0.497532 0.45 -0.497532
v -0.497532 -0.45 -0.497532
v 0.473179 -0.45 -0.497532
v 0.473179 0.45 -0.497532
v -0.497532 0.485355 0.437823
v -0.497532 0.485355 -0.462177
v 0.473179 -0.45 0.473179
v 0.473179 0.45 0.473179
v 0.437823 0.485355 -0.497532
v -0.462177 0.485355 -0.497532
v 0.437823 0.485355 0.473179
v -0.462177 0.485355 0.473179
v -0.49265 -0.480474 0.468297
v -0.49265 -0.480474 -0.49265
v 0.468297 -0.480474 -0.49265
v 0.468297 -0.480474 0.468297
v -0.49265 0.480474 0.468297
v -0.49265 0.480474 -0.49265
v 0.468297 0.480474 -0.49265
v 0.468297 0.480474 0.468297
v -0.418177 -0.4605 -0.418177
v 0.393823 -0.4605 -0.418177
v 0.393823 -0.4605 0.393823
v -0.418177 -0.4605 0.393823
v -0.472677 0.406 -0.418177
v -0.472677 -0.406 -0.418177
v -0.472677 -0.406 0.393823
v -0.472677 0.406 0.393823
v 0.393823 0.406 -0.472677
v 0.393823 -0.406 -0.472677
v -0.418177 -0.406 -0.472677
v -0.418177 0.406 -0.472677
v 0.448323 0.406 0.393823
v 0.448323 -0.406 0.393823
v 0.448323 -0.406 -0.418177
v 0.448323 0.406 -0.418177
v -0.418177 0.406 0.448323
v -0.418177 -0.406 0.448323
v 0.393823 -0.406 0.448323
v 0.393823 0.406 0.448323
v 0.393823 0.4605 0.393823
v 0.393823 0.4605 -0.418177
v -0.418177 0.4605 -0.418177
v -0.418177 0.4605 0.393823
v -0.432318 -0.500339 -0.432318
v -0.418177 -0.4805 -0.418177
v 0.407965 -0.500339 -0.432318
v 0.393823 -0.4805 -0.418177
v 0.407965 -0.500339 0.407965
v 0.393823 -0.4805 0.393823
v -0.432318 -0.500339 0.407965
v -0.418177 -0.4805 0.393823
v -0.512516 0.420142 -0.432318
v -0.492677 0.406 -0.418177
v -0.512516 -0.420142 -0.432318
v -0.492677 -0.406 -0.418177
v -0.512516 -0.420142 0.407965
v -0.492677 -0.406 0.393823
v -0.512516 0.420142 0.407965
v -0.492677 0.406 0.393823
v 0.407965 0.420142 -0.512516
v 0.393823 0.406 -0.492677
v 0.407965 -0.420142 -0.512516
v 0.393823 -0.406 -0.492677
v -0.432318 -0.420142 -0.512516
v -0.418177 -0.406 -0.492677
v -0.432318 0.420142 -0.512516
v -0.418177 0.406 -0.492677
v 0.488163 0.420142 0.407965
v 0.468323 0.406 0.393823
v 0.488163 -0.420142 0.407965
v 0.468323 -0.406 0.393823
v 0.488163 -0.420142 -0.432318
v 0.468323 -0.406 -0.418177
v 0.488163 0.420142 -0.432318
v 0.468323 0.406 -0.418177
v -0.432318 0.420142 0.488163
v -0.418177 0.406 0.468323
v -0.432318 -0.420142 0.488163
v -0.418177 -0.406 0.468323
v 0.407965 -0.420142 0.488163
v 0.393823 -0.406 0.468323
v 0.407965 0.420142 0.488163
v 0.393823 0.406 0.468323
v 0.407965 0.500339 0.407965
v 0.393823 0.4805 0.393823
v 0.407965 0.500339 -0.432318
v 0.393823 0.4805 -0.418177
v -0.432318 0.500339 -0.432318
v -0.418177 0.4805 -0.418177
v -0.432318 0.500339 0.407965
v -0.418177 0.4805 0.393823
v -0.506762 0.410149 0.397972
v -0.506762 0.410149 -0.422325
v -0.506762 -0.410149 -0.422325
v -0.506762 -0.410149 0.397972
v 0.397972 -0.410149 0.482409
v 0.397972 0.410149 0.482409
v -0.422325 -0.410149 -0.506762
v -0.422325 0.410149 -0.506762
v -0.422325 -0.410149 0.482409
v -0.422325 0.410149 0.482409
v 0.397972 0.410149 -0.506762
v 0.397972 -0.410149 -0.506762
v 0.397972 -0.494585 0.397972
v -0.422325 -0.494585 0.397972
v -0.422325 0.494585 -0.422325
v -0.422325 0.494585 0.397972
v -0.422325 -0.494585 -0.422325
v 0.397972 -0.494585 -0.422325
v 0.482409 -0.410149 -0.422325
v 0.482409 0.410149 -0.422325
v 0.397972 0.494585 -0.422325
v 0.397972 0.494585 0.397972
v 0.482409 0.410149 0.397972
v 0.482409 -0.410149 0.397972
vn 0.155617 0.975483 -0.155617
vn 0.155617 0.975483 0.155617
vn 0.376311 0.908496 0.181729
vn 0.376311 0.908496 -0.181729
vn 0.908496 0.376311 -0.181729
vn 0.908496 0.376311 0.181729
vn 0.975483 0.155617 0.155617
vn 0.975483 0.155617 -0.155617
vn -0.975483 -0.155617 0.155617
vn -0.975483 -0.155617 -0.155617
vn -0.908496 -0.376311 -0.181729
vn -0.908496 -0.376311 0.181729
vn -0.376311 -0.908496 0.181729
vn -0.376311 -0.908496 -0.181729
vn -0.155617 -0.975483 -0.155617
vn -0.155617 -0.975483 0.155617
vn 0.155617 -0.155617 0.975483
vn -0.155617 -0.155617 0.975483
vn -0.181729 -0.376311 0.908496
vn 0.181729 -0.376311 0.908496
vn 0.181729 -0.908496 0.376311
vn -0.181729 -0.908496 0.376311
vn 0.155617 -0.975483 0.155617
vn -0.155617 -0.155617 -0.975483
vn 0.155617 -0.155617 -0.975483
vn 0.181729 -0.376311 -0.908496
vn -0.181729 -0.376311 -0.908496
vn -0.181729 -0.908496 -0.376311
vn 0.181729 -0.908496 -0.376311
vn 0.155617 -0.975483 -0.155617
vn -0.155617 0.155617 0.975483
vn -0.376311 0.181729 0.908496
vn -0.376311 -0.181729 0.908496
vn -0.908496 -0.181729 0.376311
vn -0.908496 0.181729 0.376311
vn -0.975483 0.155617 0.155617
vn 0.975483 -0.155617 -0.155617
vn 0.975483 -0.155617 0.155617
vn 0.908496 -0.376311 0.181729
vn 0.908496 -0.376311 -0.181729
vn 0.376311 -0.908496 -0.181729
vn 0.376311 -0.908496 0.181729
vn -0.975483 0.155617 -0.155617
vn -0.908496 0.181729 -0.376311
vn -0.908496 -0.181729 -0.376311
vn -0.376311 -0.181729 -0.908496
vn -0.376311 0.181729 -0.908496
vn -0.155617 0.155617 -0.975483
vn 0.908496 -0.181729 -0.376311
vn 0.908496 0.181729 -0.376311
vn 0.376311 0.181729 -0.908496
vn 0.376311 -0.181729 -0.908496
vn 0.155617 0.155617 -0.975483
vn -0.908496 0.376311 0.181729
vn -0.908496 0.376311 -0.181729
vn -0.376311 0.908496 -0.181729
vn -0.376311 0.908496 0.181729
vn -0.155617 0.975483 0.155617
vn -0.155617 0.975483 -0.155617
vn 0.155617 0.155617 0.975483
vn 0.376311 -0.181729 0.908496
vn 0.376311 0.181729 0.908496
vn 0.908496 0.181729 0.376311
vn 0.908496 -0.181729 0.376311
vn 0.181729 0.908496 -0.376311
vn -0.181729 0.908496 -0.376311
vn -0.181729 0.376311 -0.908496
vn 0.181729 0.376311 -0.908496
vn 0.181729 0.376311 0.908496
vn -0.181729 0.376311 0.908496
vn -0.181729 0.908496 0.376311
vn 0.181729 0.908496 0.376311
vn -0.357406 -0.357406 0.862856
vn -0.862856 -0.357406 0.357406
vn -0.357406 -0.862856 0.357406
vn -0.862856 -0.357406 -0.357406
vn -0.357406 -0.357406 -0.862856
vn -0.357406 -0.862856 -0.357406
vn 0.357406 -0.357406 -0.862856
vn 0.862856 -0.357406 -0.357406
vn 0.357406 -0.862856 -0.357406
vn 0.357406 -0.862856 0.357406
vn 0.862856 -0.357406 0.357406
vn 0.357406 -0.357406 0.862856
vn -0.357406 0.357406 0.862856
vn -0.357406 0.862856 0.357406
vn -0.862856 0.357406 0.357406
vn -0.357406 0.862856 -0.357406
vn -0.357406 0.357406 -0.862856
vn -0.862856 0.357406 -0.357406
vn 0.357406 0.862856 -0.357406
vn 0.862856 0.357406 -0.357406
vn 0.357406 0.357406 -0.862856
vn 0.357406 0.862856 0.357406
vn 0.357406 0.357406 0.862856
vn 0.862856 0.357406 0.357406
vn 0 -1 0
vn -1 0 0
vn 0 0 -1
vn 1 0 0
vn 0 0 1
vn 0 1 0
vn -0.14274 -0.98976 0
vn -0.282556 -0.959251 0
vn -0.866596 -0.499011 0
vn -0.985829 -0.16771 0.00390825
vn -0.985829 -0.16771 -0.00390825
vn -0.14274 0.98976 0
vn -0.282556 0.959251 0
vn -0.866596 0.499011 0
vn -0.985829 0.16771 -0.00390825
vn -0.985829 0.16771 0.00390825
vn -0.14274 0 0.98976
vn -0.282556 0 0.959251
vn -0.866596 0 0.499011
vn -0.985829 0.00390825 0.16771
vn -0.985829 -0.00390825 0.16771
vn -0.98976 0 0.14274
vn -0.959251 0 0.282556
vn -0.499011 0 0.866596
vn -0.16771 -0.00390825 0.985829
vn -0.16771 0.00390825 0.985829
vn 0.98976 0 -0.14274
vn 0.959251 0 -0.282556
vn 0.499011 0 -0.866596
vn 0.16771 -0.00390825 -0.985829
vn 0.16771 0.00390825 -0.985829
vn 0 0.98976 0.14274
vn 0 0.959251 0.282556
vn 0 0.499011 0.866596
vn -0.00390825 0.16771 0.985829
vn 0.00390825 0.16771 0.985829
vn 0 -0.98976 0.14274
vn 0 -0.959251 0.282556
vn 0 -0.499011 0.866596
vn 0.00390825 -0.16771 0.985829
vn -0.00390825 -0.16771 0.985829
vn 0 -0.98976 -0.14274
vn 0 -0.959251 -0.282556
vn 0 -0.499011 -0.866596
vn -0.00390825 -0.16771 -0.985829
vn 0.00390825 -0.16771 -0.985829
vn 0 0.98976 -0.14274
vn 0 0.959251 -0.282556
vn 0 0.499011 -0.866596
vn 0.00390825 0.16771 -0.985829
vn -0.00390825 0.16771 -0.985829
vn 0 -0.14274 -0.98976
vn 0 -0.282556 -0.959251
vn 0 -0.866596 -0.499011
vn 0.00390825 -0.985829 -0.16771
vn -0.00390825 -0.985829 -0.16771
vn 0.98976 0 0.14274
vn 0.959251 0 0.282556
vn 0.499011 0 0.866596
vn 0.16771 0.00390825 0.985829
vn 0.16771 -0.00390825 0.985829
vn 0.98976 0.14274 0
vn 0.959251 0.282556 0
vn 0.499011 0.866596 0
vn 0.16771 0.985829 -0.00390825
vn 0.16771 0.985829 0.00390825
vn -0.98976 0 -0.14274
vn -0.959251 0 -0.282556
vn -0.499011 0 -0.866596
vn -0.16771 0.00390825 -0.985829
vn -0.16771 -0.00390825 -0.985829
vn 0.98976 -0.14274 0
vn 0.959251 -0.282556 0
vn 0.499011 -0.866596 0
vn 0.16771 -0.985829 0.00390825
vn 0.16771 -0.985829 -0.00390825
vn -0.98976 -0.14274 0
vn -0.959251 -0.282556 0
vn -0.499011 -0.866596 0
vn -0.16771 -0.985829 -0.00390825
vn -0.16771 -0.985829 0.00390825
vn 0.14274 0 0.98976
vn 0.282556 0 0.959251
vn 0.866596 0 0.499011
vn 0.985829 -0.00390825 0.16771
vn 0.985829 0.00390825 0.16771
vn 0 0.14274 0.98976
vn 0 0.282556 0.959251
vn 0 0.866596 0.499011
vn 0.00390825 0.985829 0.16771
vn -0.00390825 0.985829 0.16771
vn 0 0.14274 -0.98976
vn 0 0.282556 -0.959251
vn 0 0.866596 -0.499011
vn -0.00390825 0.985829 -0.16771
vn 0.00390825 0.985829 -0.16771
vn 0 -0.14274 0.98976
vn 0 -0.282556 0.959251
vn 0 -0.866596 0.499011
vn -0.00390825 -0.985829 0.16771
vn 0.00390825 -0.985829 0.16771
vn 0.14274 -0.98976 0
vn 0.282556 -0.959251 0
vn 0.866596 -0.499011 0
vn 0.985829 -0.16771 -0.00390825
vn 0.985829 -0.16771 0.00390825
vn 0.14274 0.98976 0
vn 0.282556 0.959251 0
vn 0.866596 0.499011 0
vn 0.985829 0.16771 0.00390825
vn 0.985829 0.16771 -0.00390825
vn -0.14274 0 -0.98976
vn -0.282556 0 -0.959251
vn -0.866596 0 -0.499011
vn -0.985829 -0.00390825 -0.16771
vn -0.985829 0.00390825 -0.16771
vn -0.98976 0.14274 0
vn -0.959251 0.282556 0
vn -0.499011 0.866596 0
vn -0.16771 0.985829 0.00390825
vn -0.16771 0.985829 -0.00390825
vn 0.14274 0 -0.98976
vn 0.282556 0 -0.959251
vn 0.866596 0 -0.499011
vn 0.985829 0.00390825 -0.16771
vn 0.985829 -0.00390825 -0.16771
vn 0.128456 -0.983361 0.128456
vn 0.128456 -0.983361 -0.128456
vn -0.128456 -0.983361 0.128456
vn -0.128456 -0.983361 -0.128456
vn -0.983361 -0.128456 0.128456
vn -0.983361 -0.128456 -0.128456
vn -0.983361 0.128456 0.128456
vn -0.983361 0.128456 -0.128456
vn -0.128456 -0.128456 -0.983361
vn 0.128456 -0.128456 -0.983361
vn -0.128456 0.128456 -0.983361
vn 0.128456 0.128456 -0.983361
vn 0.983361 -0.128456 -0.128456
vn 0.983361 -0.128456 0.128456
vn 0.983361 0.128456 -0.128456
vn 0.983361 0.128456 0.128456
vn 0.128456 -0.128456 0.983361
vn -0.128456 -0.128456 0.983361
vn 0.128456 0.128456 0.983361
vn -0.128456 0.128456 0.983361
vn -0.128456 0.983361 -0.128456
vn 0.128456 0.983361 -0.128456
vn -0.128456 0.983361 0.128456
vn 0.128456 0.983361 0.128456
vt 0.461792 0.0197355
vt 0.461792 0.267561
vt 0.452057 0.267561
vt 0.452057 0.0197355
vt 0.488589 0.719353
vt 0.240764 0.719353
vt 0.240764 0.709618
vt 0.488589 0.709618
vt 0.980264 0.0197355
vt 0.732439 0.0197355
vt 0.732439 0.01
vt 0.980264 0.01
vt 0.501675 0.709617
vt 0.501675 0.461792
vt 0.511411 0.461792
vt 0.511411 0.709617
vt 0.759236 0.732439
vt 0.511411 0.732439
vt 0.511411 0.722703
vt 0.759236 0.722703
vt 0.759236 0.719353
vt 0.511411 0.719353
vt 0.759236 0.709617
vt 0.488589 0.732439
vt 0.240764 0.732439
vt 0.240764 0.722703
vt 0.488589 0.722703
vt 0.511411 0.452057
vt 0.759236 0.452057
vt 0.759236 0.461792
vt 0.511411 0.980264
vt 0.501675 0.980264
vt 0.501675 0.732439
vt 0.99 0.0197355
vt 0.99 0.267561
vt 0.980264 0.267561
vt 0.488589 0.461792
vt 0.240764 0.461792
vt 0.240764 0.452057
vt 0.488589 0.452057
vt 0.768972 0.461792
vt 0.768972 0.709617
vt 0.732439 0.267561
vt 0.722703 0.267561
vt 0.722703 0.0197355
vt 0.498325 0.732439
vt 0.498325 0.980264
vt 0.488589 0.980264
vt 0.498325 0.461792
vt 0.498325 0.709618
vt 0.231028 0.980264
vt 0.231028 0.732439
vt 0.240764 0.980264
vt 0.980264 0.277297
vt 0.732439 0.277297
vt 0.719353 0.0197355
vt 0.719353 0.267561
vt 0.709618 0.267561
vt 0.709618 0.0197355
vt 0.759236 0.980264
vt 0.768972 0.732439
vt 0.768972 0.980264
vt 0.231028 0.709618
vt 0.231028 0.461792
vt 0.461792 0.01
vt 0.709618 0.01
vt 0.488589 0.99
vt 0.240764 0.99
vt 0.759236 0.99
vt 0.511411 0.99
vt 0.709618 0.277296
vt 0.461792 0.277296
vt 0.503019 0.724048
vt 0.988656 0.0113442
vt 0.503019 0.718009
vt 0.724048 0.0113442
vt 0.496981 0.724048
vt 0.503019 0.453401
vt 0.232372 0.724048
vt 0.496981 0.453401
vt 0.767627 0.453401
vt 0.767627 0.718009
vt 0.232372 0.453401
vt 0.767627 0.724048
vt 0.503019 0.988656
vt 0.718009 0.275952
vt 0.988656 0.275952
vt 0.718009 0.0113442
vt 0.496981 0.988656
vt 0.724048 0.275952
vt 0.453401 0.0113442
vt 0.496981 0.718009
vt 0.232372 0.988656
vt 0.453401 0.275952
vt 0.767627 0.988656
vt 0.232372 0.718009
vt 0.231028 0.01
vt 0.448224 0.01
vt 0.448224 0.227195
vt 0.231028 0.227195
vt 0.01 0.448224
vt 0.01 0.231028
vt 0.227195 0.231028
vt 0.227195 0.448224
vt 0.01 0.89028
vt 0.01 0.673085
vt 0.227195 0.673085
vt 0.227195 0.89028
vt 0.01 0.669252
vt 0.01 0.452057
vt 0.227195 0.452057
vt 0.227195 0.669252
vt 0.231028 0.448224
vt 0.231028 0.231028
vt 0.448224 0.231028
vt 0.448224 0.448224
vt 0.01 0.227195
vt 0.01 0.01
vt 0.227195 0.01
vt 0.227195 0.227195
vt 0.538181 0.389784
vt 0.62023 0.389784
vt 0.620649 0.399933
vt 0.537761 0.399933
vt 0.743412 0.256588
vt 0.969291 0.256588
vt 0.972043 0.259339
vt 0.740661 0.259339
vt 0.534525 0.433637
vt 0.452476 0.433637
vt 0.452057 0.423488
vt 0.534944 0.423488
vt 0.969291 0.030709
vt 0.743412 0.030709
vt 0.740661 0.0279574
vt 0.972043 0.0279574
vt 0.452476 0.409331
vt 0.534525 0.409331
vt 0.534944 0.419479
vt 0.452057 0.419479
vt 0.623885 0.380762
vt 0.705935 0.380762
vt 0.706354 0.390911
vt 0.623466 0.390911
vt 0.748263 0.969291
vt 0.748263 0.743412
vt 0.751014 0.740661
vt 0.751014 0.972043
vt 0.62023 0.328386
vt 0.538181 0.328386
vt 0.537761 0.318237
vt 0.620649 0.318237
vt 0.477616 0.969291
vt 0.477616 0.743412
vt 0.480367 0.740661
vt 0.480367 0.972043
vt 0.79164 0.308839
vt 0.70959 0.308839
vt 0.709171 0.29869
vt 0.792059 0.29869
vt 0.522384 0.743412
vt 0.519633 0.740661
vt 0.62023 0.299817
vt 0.538181 0.299817
vt 0.537761 0.289668
vt 0.620649 0.289668
vt 0.522384 0.969291
vt 0.519633 0.972043
vt 0.623885 0.322122
vt 0.705935 0.322122
vt 0.706354 0.332271
vt 0.623466 0.332271
vt 0.251737 0.969291
vt 0.248986 0.972043
vt 0.623885 0.436395
vt 0.705935 0.436395
vt 0.706354 0.446544
vt 0.623466 0.446544
vt 0.251737 0.743412
vt 0.248986 0.740661
vt 0.538181 0.427374
vt 0.62023 0.427374
vt 0.620649 0.437522
vt 0.537761 0.437522
vt 0.522384 0.698644
vt 0.748263 0.698644
vt 0.751014 0.701396
vt 0.519632 0.701396
vt 0.705935 0.347932
vt 0.623885 0.347932
vt 0.623466 0.337783
vt 0.706354 0.337783
vt 0.0697674 0.894532
vt 0.0697674 0.976582
vt 0.0596186 0.977001
vt 0.0596186 0.894113
vt 0.698644 0.256588
vt 0.698644 0.030709
vt 0.701396 0.0279573
vt 0.701396 0.259339
vt 0.452476 0.295057
vt 0.534525 0.295057
vt 0.534944 0.305206
vt 0.452057 0.305206
vt 0.102597 0.976582
vt 0.102597 0.894532
vt 0.112746 0.894113
vt 0.112746 0.977001
vt 0.522384 0.472765
vt 0.519632 0.470014
vt 0.159734 0.976582
vt 0.159734 0.894532
vt 0.169883 0.894113
vt 0.169883 0.977001
vt 0.748263 0.472765
vt 0.751014 0.470014
vt 0.188302 0.976582
vt 0.188302 0.894532
vt 0.198451 0.894113
vt 0.198451 0.977001
vt 0.477616 0.698644
vt 0.477616 0.472766
vt 0.480367 0.470014
vt 0.480367 0.701396
vt 0.126904 0.894532
vt 0.126904 0.976582
vt 0.116755 0.977001
vt 0.116755 0.894113
vt 0.472766 0.030709
vt 0.470014 0.0279573
vt 0.452476 0.352194
vt 0.534525 0.352194
vt 0.534944 0.362343
vt 0.452057 0.362343
vt 0.472766 0.256588
vt 0.470014 0.259339
vt 0.0454608 0.976581
vt 0.0454608 0.894532
vt 0.0556096 0.894113
vt 0.0556096 0.977001
vt 0.534525 0.319364
vt 0.452476 0.319364
vt 0.452057 0.309215
vt 0.534944 0.309215
vt 0.251737 0.698644
vt 0.248986 0.701396
vt 0.791639 0.423112
vt 0.70959 0.423112
vt 0.709171 0.412963
vt 0.792059 0.412963
vt 0.251737 0.472766
vt 0.248986 0.470014
vt 0.534525 0.3765
vt 0.452476 0.3765
vt 0.452057 0.366352
vt 0.534944 0.366352
vt 0.212609 0.894532
vt 0.212609 0.976582
vt 0.20246 0.977001
vt 0.20246 0.894113
vt 0.62023 0.356954
vt 0.538181 0.356954
vt 0.537761 0.346805
vt 0.620649 0.346805
vt 0.0881869 0.976582
vt 0.0881869 0.894532
vt 0.0310503 0.976581
vt 0.0310503 0.894532
vt 0.145323 0.976582
vt 0.145323 0.894532
vt 0.538181 0.412963
vt 0.62023 0.412963
vt 0.538181 0.375373
vt 0.62023 0.375373
vt 0.452476 0.39492
vt 0.534525 0.39492
vt 0.534525 0.448048
vt 0.452476 0.448048
vt 0.534525 0.390911
vt 0.452476 0.390911
vt 0.623885 0.307712
vt 0.705935 0.307712
vt 0.452476 0.280647
vt 0.534525 0.280647
vt 0.623885 0.421985
vt 0.705935 0.421985
vt 0.62023 0.342796
vt 0.538181 0.342796
vt 0.534525 0.333774
vt 0.452476 0.333774
vt 0.62023 0.371364
vt 0.538181 0.371364
vt 0.791639 0.437522
vt 0.70959 0.437522
vt 0.173892 0.976582
vt 0.173892 0.894532
vt 0.62023 0.314228
vt 0.538181 0.314228
vt 0.705935 0.362343
vt 0.623885 0.362343
vt 0.79164 0.323249
vt 0.70959 0.323249
vt 0.623885 0.366352
vt 0.705935 0.366352
vt 0.452476 0.337783
vt 0.534525 0.337783
vt 0.227019 0.894532
vt 0.227019 0.976582
vt 0.141314 0.894532
vt 0.141314 0.976582
vt 0.0841779 0.894532
vt 0.0841779 0.976582
mtllib crate.mtl
usemtl Default
g Default
f 19/1/1 22/2/2 25/3/3 26/4/4
f 26/5/5 25/6/6 24/7/7 20/8/8
f 2/9/9 4/10/10 27/11/11 28/12/12
f 28/13/13 27/14/14 6/15/15 3/16/16
f 12/17/17 1/18/18 29/19/19 30/20/20
f 30/21/21 29/22/22 3/16/16 10/23/23
f 5/24/24 7/25/25 31/26/26 32/27/27
f 32/28/28 31/29/29 9/30/30 6/15/15
f 1/18/18 13/31/31 33/32/32 34/33/33
f 34/34/34 33/35/35 15/36/36 2/9/9
f 8/37/37 11/38/38 35/39/39 36/40/40
f 36/41/41 35/42/42 10/23/23 9/30/30
f 4/10/10 18/43/43 37/44/44 38/45/45
f 38/46/46 37/47/47 17/48/48 5/24/24
f 20/8/8 8/37/37 39/49/49 40/50/50
f 40/51/51 39/52/52 7/25/25 21/53/53
f 18/43/43 15/36/36 41/54/54 42/55/55
f 42/56/56 41/57/57 14/58/58 16/59/59
f 23/60/60 12/17/17 43/61/61 44/62/62
f 44/63/63 43/64/64 11/38/38 24/7/7
f 16/59/59 19/1/1 45/65/65 46/66/66
f 46/67/67 45/68/68 21/53/53 17/48/48
f 13/31/31 23/60/60 47/69/69 48/70/70
f 48/71/71 47/72/72 22/2/2 14/58/58
f 1/18/18 34/33/33 49/73/73 29/19/19
f 2/9/9 28/12/12 49/74/74 34/34/34
f 3/16/16 29/22/22 49/75/75 28/13/13
f 4/10/10 38/45/45 50/76/76 27/11/11
f 5/24/24 32/27/27 50/77/77 38/46/46
f 6/15/15 27/14/14 50/78/78 32/28/28
f 7/25/25 39/52/52 51/79/79 31/26/26
f 8/37/37 36/40/40 51/80/80 39/49/49
f 9/30/30 31/29/29 51/81/81 36/41/41
f 10/23/23 35/42/42 52/82/82 30/21/21
f 11/38/38 43/64/64 52/83/83 35/39/39
f 12/17/17 30/20/20 52/84/84 43/61/61
f 13/31/31 48/70/70 53/85/85 33/32/32
f 14/58/58 41/57/57 53/86/86 48/71/71
f 15/36/36 33/35/35 53/87/87 41/54/54
f 16/59/59 46/66/66 54/88/88 42/56/56
f 17/48/48 37/47/47 54/89/89 46/67/67
f 18/43/43 42/55/55 54/90/90 37/44/44
f 19/1/1 26/4/4 55/91/91 45/65/65
f 20/8/8 40/50/50 55/92/92 26/5/5
f 21/53/53 45/68/68 55/93/93 40/51/51
f 22/2/2 47/72/72 56/94/94 25/3/3
f 23/60/60 44/62/62 56/95/95 47/69/69
f 24/7/7 25/6/6 56/96/96 44/63/63
f 57/97/97 58/98/97 59/99/97 60/100/97
f 61/101/98 62/102/98 63/103/98 64/104/98
f 65/105/99 66/106/99 67/107/99 68/108/99
f 69/109/100 70/110/100 71/111/100 72/112/100
f 73/113/101 74/114/101 75/115/101 76/116/101
f 77/117/102 78/118/102 79/119/102 80/120/102
f 90/121/103 96/122/103 129/123/104 130/124/104
f 130/125/105 129/126/105 95/127/106 89/128/107
f 94/129/108 92/130/108 131/131/109 132/132/109
f 132/133/110 131/134/110 91/135/111 93/136/112
f 92/137/113 90/138/113 130/139/114 131/140/114
f 131/134/115 130/125/115 89/128/116 91/135/117
f 120/141/118 118/142/118 133/143/119 134/144/119
f 134/145/120 133/146/120 117/147/121 119/148/122
f 104/149/123 102/150/123 135/151/124 136/152/124
f 136/153/125 135/154/125 101/155/126 103/156/127
f 118/157/128 116/158/128 137/159/129 133/160/129
f 133/146/130 137/161/130 115/162/131 117/147/132
f 114/163/133 120/164/133 134/165/134 138/166/134
f 138/167/135 134/145/135 119/148/136 113/168/137
f 98/169/138 104/170/138 136/171/139 139/172/139
f 139/173/140 136/153/140 103/156/141 97/174/142
f 102/175/143 100/176/143 140/177/144 135/178/144
f 135/154/145 140/179/145 99/180/146 101/155/147
f 88/181/148 86/182/148 141/183/149 142/184/149
f 142/185/150 141/186/150 85/187/151 87/188/152
f 116/189/153 114/190/153 138/191/154 137/192/154
f 137/161/155 138/167/155 113/168/156 115/162/157
f 128/193/158 126/194/158 143/195/159 144/196/159
f 144/197/160 143/198/160 125/199/161 127/200/162
f 100/201/163 98/202/163 139/203/164 140/204/164
f 140/179/165 139/173/165 97/174/166 99/180/167
f 82/205/168 88/206/168 142/207/169 145/208/169
f 145/209/170 142/185/170 87/188/171 81/210/172
f 86/211/173 84/212/173 146/213/174 141/214/174
f 141/186/175 146/215/175 83/216/176 85/187/177
f 112/217/178 110/218/178 147/219/179 148/220/179
f 148/221/180 147/222/180 109/223/181 111/224/182
f 126/225/183 124/226/183 149/227/184 143/228/184
f 143/198/185 149/229/185 123/230/186 125/199/187
f 122/231/188 128/232/188 144/233/189 150/234/189
f 150/235/190 144/197/190 127/200/191 121/236/192
f 84/237/193 82/238/193 145/239/194 146/240/194
f 146/215/195 145/209/195 81/210/196 83/216/197
f 106/241/198 112/242/198 148/243/199 151/244/199
f 151/245/200 148/221/200 111/224/201 105/246/202
f 110/247/203 108/248/203 152/249/204 147/250/204
f 147/222/205 152/251/205 107/252/206 109/223/207
f 96/253/208 94/254/208 132/255/209 129/256/209
f 129/126/210 132/133/210 93/136/211 95/127/212
f 124/257/213 122/258/213 150/259/214 149/260/214
f 149/229/215 150/235/215 121/236/216 123/230/217
f 108/261/218 106/262/218 151/263/219 152/264/219
f 152/251/220 151/245/220 105/246/221 107/252/222
f 6/15/15 81/210/223 87/188/224 3/16/16
f 9/30/30 83/216/225 81/210/223 6/15/15
f 10/23/23 85/187/226 83/216/225 9/30/30
f 3/16/16 87/188/224 85/187/226 10/23/23
f 18/43/43 89/128/227 95/127/228 15/36/36
f 4/10/10 91/135/229 89/128/227 18/43/43
f 2/9/9 93/136/230 91/135/229 4/10/10
f 15/36/36 95/127/228 93/136/230 2/9/9
f 21/53/53 97/174/231 103/156/232 17/48/48
f 7/25/25 99/180/233 97/174/231 21/53/53
f 5/24/24 101/155/234 99/180/233 7/25/25
f 17/48/48 103/156/232 101/155/234 5/24/24
f 24/7/7 105/246/235 111/224/236 20/8/8
f 11/38/38 107/252/237 105/246/235 24/7/7
f 8/37/37 109/223/238 107/252/237 11/38/38
f 20/8/8 111/224/236 109/223/238 8/37/37
f 13/31/31 113/168/239 119/148/240 23/60/60
f 1/18/18 115/162/241 113/168/239 13/31/31
f 12/17/17 117/147/242 115/162/241 1/18/18
f 23/60/60 119/148/240 117/147/242 12/17/17
f 22/2/2 121/236/243 127/200/244 14/58/58
f 19/1/1 123/230/245 121/236/243 22/2/2
f 16/59/59 125/199/246 123/230/245 19/1/1
f 14/58/58 127/200/244 125/199/246 16/59/59
f 82/205/168 57/265/100 60/266/100 88/206/168
f 84/237/193 58/267/101 57/268/101 82/238/193
f 86/211/173 59/269/98 58/270/98 84/212/173
f 88/181/148 60/271/99 59/272/99 86/182/148
f 90/121/103 61/273/97 64/274/97 96/122/103
f 92/137/113 62/275/101 61/276/101 90/138/113
f 94/129/108 63/277/102 62/278/102 92/130/108
f 96/253/208 64/279/99 63/280/99 94/254/208
f 98/169/138 65/281/97 68/282/97 104/170/138
f 100/201/163 66/283/98 65/284/98 98/202/163
f 102/175/143 67/285/102 66/286/102 100/176/143
f 104/149/123 68/287/100 67/288/100 102/150/123
f 106/241/198 69/289/97 72/290/97 112/242/198
f 108/261/218 70/291/99 69/292/99 106/262/218
f 110/247/203 71/293/102 70/294/102 108/248/203
f 112/217/178 72/295/101 71/296/101 110/218/178
f 114/163/133 73/297/97 76/298/97 120/164/133
f 116/189/153 74/299/100 73/300/100 114/190/153
f 118/157/128 75/301/102 74/302/102 116/158/128
f 120/141/118 76/303/98 75/304/98 118/142/118
f 122/231/188 77/305/99 80/306/99 128/232/188
f 124/257/213 78/307/98 77/308/98 122/258/213
f 126/225/183 79/309/101 78/310/101 124/226/183
f 128/193/158 80/311/100 79/312/100 126/194/158
